<?xml version="1.0" encoding="UTF-8"?>
<svg id="a" data-name="Layer_1" xmlns="http://www.w3.org/2000/svg" viewBox="0 0 437.04 45.43">
  <defs>
    <style>
      .b {
        fill: #7d5a98;
      }

      .c {
        fill: #fff;
      }
    </style>
  </defs>
  <g>
    <path class="c" d="M286.99,28.43l1.62,3.17h-3.55l-1.62-3.17-1.7-3.32-.08-.15c-.56-.91-1.55-1.52-2.69-1.52h-3.17v8.17h-3.17V13.85h11.21c1.32,0,2.51.53,3.37,1.39.86.89,1.4,2.08,1.4,3.4,0,1.93-1.14,3.6-2.79,4.36-.43.2-.89.33-1.37.38l2.54,5.05ZM283.84,20.27c.23,0,.46-.05.66-.15.58-.25.96-.84.96-1.47,0-.58-.3-.99-.48-1.17-.2-.2-.58-.46-1.14-.46h-8.04v3.27l8.04-.03Z"/>
    <path class="c" d="M308.31,22.7c0,4.89-3.98,8.88-8.88,8.88s-8.88-3.98-8.88-8.88,3.98-8.88,8.88-8.88,8.88,3.98,8.88,8.88M305.14,22.7c0-3.15-2.56-5.71-5.71-5.71s-5.71,2.56-5.71,5.71,2.56,5.71,5.71,5.71,5.71-2.56,5.71-5.71"/>
    <path class="c" d="M327.98,25.92c0,3.12-2.54,5.66-5.66,5.66h-12.1V13.82h11.19c2.64,0,4.79,2.16,4.79,4.8,0,.96-.28,1.85-.76,2.58,1.52,1.02,2.54,2.74,2.54,4.72M313.39,20.24h8.04c.89,0,1.62-.74,1.62-1.62s-.74-1.62-1.62-1.62h-8.04v3.25ZM322.32,28.38c1.37,0,2.49-1.12,2.49-2.49s-1.12-2.49-2.49-2.49h-8.93v5h8.93v-.03Z"/>
    <path class="c" d="M347.01,22.7c0,4.89-3.98,8.88-8.88,8.88s-8.88-3.98-8.88-8.88,3.98-8.88,8.88-8.88,8.88,3.98,8.88,8.88M343.84,22.7c0-3.15-2.56-5.71-5.71-5.71s-5.71,2.56-5.71,5.71,2.56,5.71,5.71,5.71,5.71-2.56,5.71-5.71"/>
    <polygon class="c" points="364.98 13.85 364.98 17.02 357.7 17.02 357.7 31.61 354.53 31.61 354.53 17.02 347.25 17.02 347.25 13.85 364.98 13.85"/>
    <polygon class="c" points="397.04 31.58 393.49 31.58 391.87 28.41 387.98 20.8 384.1 28.41 382.48 31.58 378.93 31.58 380.55 28.41 387.98 13.82 395.42 28.41 397.04 31.58"/>
    <path class="c" d="M412.9,28.43l1.62,3.17h-3.55l-1.62-3.17-1.7-3.32-.08-.15c-.56-.91-1.55-1.52-2.69-1.52h-3.17v8.17h-3.17V13.85h11.21c1.32,0,2.51.53,3.37,1.39.86.89,1.4,2.08,1.4,3.4,0,1.93-1.14,3.6-2.79,4.36-.43.2-.89.33-1.37.38l2.54,5.05ZM409.76,20.27c.23,0,.46-.05.66-.15.58-.25.96-.84.96-1.47,0-.58-.3-.99-.48-1.17-.2-.2-.58-.46-1.14-.46h-8.04v3.27l8.04-.03Z"/>
    <polygon class="c" points="434.86 13.82 434.86 31.58 431.69 31.58 431.69 20.27 428.56 22.65 425.98 24.65 423.39 22.65 420.27 20.27 420.27 31.58 417.1 31.58 417.1 13.82 420.27 16.26 425.98 20.65 431.69 16.26 434.86 13.82"/>
  </g>
  <g>
    <polygon class="b" points="14.87 16.97 27.82 16.97 15.07 45.13 2.19 45.13 14.87 16.97"/>
    <path class="c" d="M53.53,10.18H18.05L22.46.34h42.86c1.99,0,3.55.44,4.69,1.32,1.14.88,1.7,2.1,1.7,3.64,0,.37-.07.8-.2,1.28-.13.47-.32.98-.56,1.51l-16.83,37.03h-12.95l14.54-31.97c.04-.11.09-.25.13-.41s.07-.32.07-.45c0-.6-.23-1.1-.68-1.51-.45-.41-1.02-.61-1.7-.61"/>
    <polygon class="b" points="34.55 16.97 47.3 16.97 34.61 45.13 21.86 45.13 34.55 16.97"/>
    <path class="c" d="M85.03.34h21.3c1.55,0,2.77.41,3.66,1.22.89.82,1.34,1.93,1.34,3.35,0,.38-.02.73-.07,1.06-.05.33-.11.65-.2.96l-11.13,38.19h-42.73l23.35-28.15h13.35l-13.91,18.32h9.64l7.12-22.79s.01-.05.03-.1c.07-.29.1-.53.1-.73,0-.44-.17-.8-.5-1.08-.33-.27-.77-.41-1.33-.41h-14.37L85.03.34Z"/>
    <polygon class="c" points="135.44 16.97 122.69 45.13 109.71 45.13 122.46 16.97 135.44 16.97"/>
    <polygon class="c" points="148.72 10.18 114.08 10.18 118.55 .34 153.2 .34 148.72 10.18"/>
    <path class="c" d="M163.33,29.46c.07-.13.12-.28.15-.43.03-.16.05-.31.05-.47,0-.57-.23-1.06-.68-1.47-.45-.41-1.02-.61-1.71-.61h-3.25l-8.61,18.65h-12.95l12.69-27.82h20.01l1.82-4.27c.07-.16.11-.32.15-.48.03-.16.05-.34.05-.51,0-.57-.22-1.05-.65-1.42-.43-.37-1-.56-1.7-.56h-16.43l4.41-9.71h23.49c1.99,0,3.54.44,4.67,1.33,1.13.88,1.69,2.1,1.69,3.64,0,.4-.06.83-.18,1.29-.12.46-.3.96-.55,1.49l-6.86,15.2c-.6,1.28-1.34,2.19-2.22,2.72-.88.53-2.11.8-3.68.8h-.43c.77.49,1.35,1.07,1.74,1.74.39.67.58,1.43.58,2.27,0,.4-.07.85-.2,1.34-.13.49-.32,1-.56,1.51l-5.2,11.46h-12.62l6.99-15.67Z"/>
    <polygon class="c" points="210.47 .34 190.13 45.13 177.18 45.13 197.52 .34 210.47 .34"/>
    <path class="c" d="M222.29,32.04l-6.2,8.28c-1.24,1.66-2.85,2.87-4.84,3.64-1.99.77-4.51,1.16-7.55,1.16h-7.42l4.51-9.84h2.15c1.43,0,2.68-.22,3.74-.65,1.06-.43,1.92-1.08,2.58-1.94l9.21-12.06L211.76.34h11.96l3.11,10.8,4.34-6.72c.91-1.39,2.08-2.42,3.53-3.08,1.44-.66,3.27-.99,5.48-.99h9.18l-4.47,9.84h-1.16c-1.52,0-2.8.22-3.84.65-1.04.43-1.87,1.08-2.49,1.94l-6.49,9.31,7.59,23.05h-11.99l-4.21-13.08Z"/>
  </g>
  <rect class="c" x="259.31" y=".23" width="2.12" height="44.76"/>
</svg>